<?xml version="1.0" encoding="UTF-8"?>
<!DOCTYPE svg PUBLIC "-//W3C//DTD SVG 1.1//EN" "http://www.w3.org/Graphics/SVG/1.1/DTD/svg11.dtd">
<svg xmlns="http://www.w3.org/2000/svg" version="1.1" width="346px" height="346px" style="shape-rendering:geometricPrecision; text-rendering:geometricPrecision; image-rendering:optimizeQuality; fill-rule:evenodd; clip-rule:evenodd" xmlns:xlink="http://www.w3.org/1999/xlink">
<g><path style="opacity:0.999" fill="#EFF1F3" d="M 129.5,18.5 C 132.448,18.2229 135.281,18.5562 138,19.5C 138.833,112.168 138.667,204.835 137.5,297.5C 134.966,298.788 132.466,298.788 130,297.5C 129.5,243.168 129.333,188.834 129.5,134.5C 102.498,134.667 75.4979,134.5 48.5,134C 47.5562,131.281 47.2229,128.448 47.5,125.5C 74.8333,125.5 102.167,125.5 129.5,125.5C 129.5,89.8333 129.5,54.1667 129.5,18.5 Z"/></g>
<g><path style="opacity:0.999" fill="#24a9c0" d="M 157.5,47.5 C 205.165,49.4027 239.332,71.736 260,114.5C 275.884,156.99 269.884,195.99 242,231.5C 219.48,256.506 191.313,269.173 157.5,269.5C 157.5,224.167 157.5,178.833 157.5,133.5C 181.169,133.667 204.836,133.5 228.5,133C 229.423,130.959 229.756,128.792 229.5,126.5C 205.5,126.5 181.5,126.5 157.5,126.5C 157.5,100.167 157.5,73.8333 157.5,47.5 Z"/></g>
</svg>
